<?xml version="1.0" standalone="no"?>
<!DOCTYPE svg PUBLIC "-//W3C//DTD SVG 20010904//EN"
 "http://www.w3.org/TR/2001/REC-SVG-20010904/DTD/svg10.dtd">
<svg version="1.0" xmlns="http://www.w3.org/2000/svg"
 width="176.000000pt" height="176.000000pt" viewBox="0 0 176.000000 176.000000"
 preserveAspectRatio="xMidYMid meet">
<metadata>
Created by potrace 1.14, written by Peter Selinger 2001-2017
</metadata>
<g transform="translate(0.000000,176.000000) scale(0.100000,-0.100000)"
fill="#000000" stroke="none">
<path d="M173 1267 c-108 -40 -174 -133 -169 -240 1 -34 10 -75 18 -92 18 -34
84 -105 98 -105 5 0 2 17 -7 38 -9 21 -16 68 -17 107 0 59 4 78 26 116 14 24
39 57 54 72 22 23 29 25 36 13 4 -8 8 -25 8 -38 0 -50 4 -77 11 -72 8 5 4 37
-6 54 -3 6 -2 10 2 10 5 0 8 18 8 40 0 37 2 41 33 51 43 14 118 7 162 -14 46
-23 48 -15 4 18 -66 51 -185 70 -261 42z"/>
<path d="M783 1209 c-36 -10 -66 -48 -71 -88 -4 -42 -10 -51 -27 -45 -8 3 -15
1 -15 -5 0 -10 11 -14 27 -8 11 3 18 -49 15 -104 -3 -37 -8 -50 -23 -54 -41
-13 -15 -25 56 -25 71 0 99 11 55 23 -18 5 -20 14 -20 82 0 43 4 74 9 71 12
-8 41 3 41 15 0 5 -11 9 -26 9 -24 0 -25 2 -22 52 2 41 7 54 20 56 12 2 21 -6
28 -22 7 -19 17 -26 35 -26 l25 0 0 -114 c0 -106 -2 -115 -20 -121 -44 -14
-17 -26 53 -23 41 2 71 7 70 13 -2 6 -7 10 -12 10 -20 0 -23 19 -23 159 l0
146 -47 -3 c-25 -1 -57 1 -71 4 -14 4 -40 3 -57 -2z"/>
<path d="M455 1153 c47 -117 30 -226 -48 -307 -76 -78 -172 -94 -269 -46 l-43
22 31 -30 c79 -73 205 -88 326 -37 15 6 16 -1 11 -72 -3 -43 -6 -79 -8 -81 -2
-2 -22 -5 -45 -7 -59 -6 -63 -15 -5 -13 26 0 50 -4 54 -9 3 -4 17 -7 31 -6 38
5 39 5 130 -1 81 -5 111 -9 148 -20 9 -3 31 -8 47 -11 17 -2 41 -7 55 -10 34
-8 124 -23 185 -33 67 -9 417 -9 479 1 93 15 216 53 216 66 0 5 -24 0 -54 -10
-84 -29 -241 -41 -336 -27 -84 13 -158 32 -154 40 3 5 10 6 15 3 10 -7 10 -5
12 150 l1 100 -30 3 -31 3 0 -123 c0 -79 4 -126 11 -130 7 -5 6 -8 -4 -8 -23
0 -34 11 -63 56 -23 38 -24 43 -10 57 26 26 21 84 -10 114 -20 20 -39 27 -81
31 l-56 4 0 -117 c0 -147 -12 -148 -60 -4 -42 125 -43 128 -73 122 -18 -4 -27
-18 -45 -71 -66 -191 -66 -191 -73 -17 -1 39 -6 75 -11 81 -13 18 -57 4 -64
-20 -4 -11 -16 -46 -27 -76 l-20 -55 -28 82 -27 82 21 43 c30 58 28 140 -2
199 -33 62 -118 135 -96 82z m599 -409 c9 -8 16 -17 16 -19 0 -8 -32 -35 -41
-35 -5 0 -9 16 -9 35 0 38 10 44 34 19z m-209 -84 c-3 -5 -12 -7 -20 -4 -11 5
-12 11 -2 31 11 25 11 25 19 3 4 -12 6 -26 3 -30z m-306 -38 c8 -25 6 -30 -5
-25 -8 3 -14 19 -14 36 0 36 7 32 19 -11z m116 8 c0 -17 -5 -30 -12 -30 -16 0
-16 2 -3 34 12 34 16 33 15 -4z m399 -25 c16 -24 16 -25 -9 -25 -20 0 -25 5
-25 25 0 14 4 25 9 25 5 0 16 -11 25 -25z"/>
<path d="M318 1139 c-25 -13 -40 -29 -48 -54 -8 -23 -18 -35 -30 -35 -10 0
-22 -5 -26 -12 -4 -7 -3 -8 4 -4 8 5 12 -1 12 -14 0 -14 4 -19 13 -14 8 6 8 3
-2 -9 -12 -15 -16 -15 -45 8 -18 14 -39 25 -46 25 -7 0 5 -12 26 -26 21 -15
40 -28 42 -29 2 -2 -4 -17 -12 -34 -10 -19 -21 -28 -30 -25 -8 3 -23 1 -33 -5
-16 -9 -15 -10 7 -11 14 0 45 -11 70 -24 84 -44 160 -41 200 9 14 18 14 18
-10 2 -13 -9 -29 -17 -34 -17 -13 0 0 135 19 183 7 16 5 16 -34 0 -45 -20
-117 -84 -126 -114 -4 -10 -10 -19 -15 -19 -16 0 30 68 67 101 20 17 55 39 78
49 47 20 74 57 30 40 -22 -8 -25 -7 -25 15 0 33 -9 36 -52 14z m-18 -39 c0 -5
-5 -10 -11 -10 -5 0 -7 5 -4 10 3 6 8 10 11 10 2 0 4 -4 4 -10z m30 -21 c-19
-12 -46 -31 -59 -43 -13 -11 -21 -15 -17 -8 10 18 86 72 100 72 6 0 -5 -10
-24 -21z"/>
<path d="M1550 1130 c0 -16 -43 -50 -63 -50 -10 0 -17 -5 -14 -12 2 -7 10 -13
18 -13 11 0 15 -18 17 -75 3 -88 23 -116 77 -106 34 7 75 48 54 55 -7 2 -18
-4 -24 -13 -14 -19 -35 -21 -36 -3 -1 6 -2 41 -2 77 -1 60 0 65 21 66 46 3 52
4 52 13 0 6 -17 11 -37 13 -34 3 -38 6 -37 31 0 16 -5 27 -13 27 -7 0 -13 -4
-13 -10z"/>
<path d="M1058 1071 c-84 -42 -74 -161 16 -191 58 -19 146 4 146 37 0 17 -10
16 -34 -2 -41 -31 -96 -13 -111 36 -10 30 -1 34 76 35 38 0 71 3 74 6 3 3 1
17 -4 31 -21 55 -102 79 -163 48z m86 -17 c9 -3 16 -15 16 -25 0 -16 -8 -19
-45 -19 -30 0 -45 4 -45 13 0 30 37 45 74 31z"/>
<path d="M1312 1075 c-40 -17 -66 -59 -65 -102 2 -61 60 -103 136 -99 51 3 95
32 77 50 -8 8 -13 7 -19 -2 -4 -7 -24 -15 -43 -18 -42 -7 -78 21 -78 60 0 22
4 23 63 23 103 1 97 -1 85 34 -19 56 -91 81 -156 54z m96 -49 c3 -13 -5 -16
-42 -16 -52 0 -61 18 -24 44 19 13 25 14 43 2 11 -7 21 -21 23 -30z"/>
<path d="M1433 822 c-20 -3 -22 -8 -20 -72 1 -38 -1 -66 -5 -62 -4 4 -22 34
-40 67 -29 52 -38 60 -66 63 -25 3 -32 -1 -33 -15 0 -10 -1 -66 -2 -125 -2
-88 1 -108 13 -111 37 -9 47 6 46 71 -1 34 1 62 4 62 3 0 21 -29 40 -65 19
-36 41 -66 48 -66 6 -1 18 -2 25 -3 6 -1 17 1 22 5 12 9 11 238 -1 248 -5 4
-19 5 -31 3z"/>
<path d="M1531 698 c-22 -68 -41 -126 -41 -129 0 -12 53 -3 64 12 12 16 86 23
86 9 0 -14 37 -31 54 -24 17 7 17 8 -27 144 -32 101 -35 105 -64 108 l-30 3
-42 -123z m86 -44 c-1 -1 -9 1 -18 5 -13 5 -15 11 -7 31 l10 25 9 -29 c5 -17
7 -31 6 -32z"/>
</g>
</svg>
